<svg width="270.1565307617187px" height="66.08000183105469px" xmlns="http://www.w3.org/2000/svg" viewBox="114.92173461914064 41.959999084472656 270.1565307617187 66.08000183105469" style="background: none;" preserveAspectRatio="xMidYMid"><defs><filter id="editing-hole" x="-100%" y="-100%" width="300%" height="300%"><feFlood flood-color="none" result="black"></feFlood><feMorphology operator="dilate" radius="2" in="SourceGraphic" result="erode"></feMorphology><feGaussianBlur in="erode" stdDeviation="4" result="blur"></feGaussianBlur><feOffset in="blur" dx="2" dy="2" result="offset"></feOffset><feComposite operator="atop" in="offset" in2="black" result="merge"></feComposite><feComposite operator="in" in="merge" in2="SourceGraphic" result="inner-shadow"></feComposite></filter></defs><g filter="url(#editing-hole)"><g transform="translate(158.77011895179749, 85.7300033569336)"><path d="M0.93-7.08L0.93-7.08L0.93-7.08Q0.93-12.56 3.77-16.01L3.77-16.01L3.77-16.01Q6.79-19.75 12.04-19.75L12.04-19.75L12.04-19.75Q15.83-19.75 17.75-17.91L17.75-17.91L17.75-17.91Q19.66-16.07 19.66-12.18L19.66-12.18L19.66-12.18Q19.66-6.26 16.65-2.81L16.65-2.81L16.65-2.81Q13.66 0.58 8.64 0.58L8.64 0.58L8.64 0.58Q4.73 0.58 2.83-1.38L2.83-1.38L2.83-1.38Q0.93-3.33 0.93-7.08ZM8.55-13.08L8.55-13.08L8.55-13.08Q7.25-7.86 7.25-3.74L7.25-3.74L7.25-3.74Q7.25-2.76 7.58-2.12L7.58-2.12L7.58-2.12Q7.92-1.48 8.80-1.48L8.80-1.48L8.80-1.48Q9.69-1.48 10.24-1.90L10.24-1.90L10.24-1.90Q10.79-2.32 11.22-3.28L11.22-3.28L11.22-3.28Q11.92-4.84 12.57-8.16L12.57-8.16L12.57-8.16Q13.22-11.48 13.28-12.86L13.28-12.86L13.28-12.86Q13.34-14.24 13.34-15.28L13.34-15.28L13.34-15.28Q13.34-16.33 13.02-16.99L13.02-16.99L13.02-16.99Q12.70-17.66 11.85-17.66L11.85-17.66L11.85-17.66Q10.99-17.66 10.41-17.14L10.41-17.14L10.41-17.14Q9.34-16.15 8.55-13.08ZM35.32-12.06L35.32-12.06L35.32-12.06Q35.32-10.85 34.31-10.09L34.31-10.09L34.31-10.09Q33.29-9.34 31.64-9.34L31.64-9.34L31.64-9.34Q30.94-9.34 30.54-9.54L30.54-9.54L30.54-9.54Q30.86-10.29 30.96-11.24L30.96-11.24L30.96-11.24Q31.06-12.18 31.06-12.44L31.06-12.44L31.06-12.44Q31.06-13.66 30.22-13.66L30.22-13.66L30.22-13.66Q29.64-13.66 28.99-12.93L28.99-12.93L28.99-12.93Q28.33-12.21 27.78-11.08L27.78-11.08L27.78-11.08Q26.56-8.47 26.56-5.83L26.56-5.83L26.56-5.83Q26.56-4.38 27.12-3.73L27.12-3.73L27.12-3.73Q27.67-3.07 28.88-3.07L28.88-3.07L28.88-3.07Q30.57-3.07 31.90-4.47L31.90-4.47L31.90-4.47Q32.28-4.90 32.48-5.39L32.48-5.39L32.48-5.39Q33.58-4.81 33.58-3.22L33.58-3.22L33.58-3.22Q33.58-1.59 31.78-0.52L31.78-0.52L31.78-0.52Q29.93 0.58 26.97 0.58L26.97 0.58L26.97 0.58Q21.08 0.58 21.08-5.66L21.08-5.66L21.08-5.66Q21.08-10.21 23.66-12.82L23.66-12.82L23.66-12.82Q26.16-15.37 30.74-15.37L30.74-15.37L30.74-15.37Q35.32-15.37 35.32-12.06ZM47.85-4.90L47.85-4.90L47.85-4.90Q48.58-4.41 48.58-3.32L48.58-3.32L48.58-3.32Q48.58-2.23 48.02-1.54L48.02-1.54L48.02-1.54Q47.47-0.84 46.57-0.38L46.57-0.38L46.57-0.38Q44.72 0.58 42.72 0.58L42.72 0.58L42.72 0.58Q40.72 0.58 39.54 0.15L39.54 0.15L39.54 0.15Q38.37-0.29 37.58-1.10L37.58-1.10L37.58-1.10Q36.05-2.64 36.05-5.45L36.05-5.45L36.05-5.45Q36.05-9.83 38.43-12.50L38.43-12.50L38.43-12.50Q40.98-15.37 45.41-15.37L45.41-15.37L45.41-15.37Q48.17-15.37 49.53-14.21L49.53-14.21L49.53-14.21Q50.55-13.34 50.55-11.92L50.55-11.92L50.55-11.92Q50.55-6.82 41.73-6.82L41.73-6.82L41.73-6.82Q41.62-6.06 41.62-5.42L41.62-5.42L41.62-5.42Q41.62-4.09 42.21-3.58L42.21-3.58L42.21-3.58Q42.80-3.07 43.91-3.07L43.91-3.07L43.91-3.07Q45.01-3.07 46.18-3.58L46.18-3.58L46.18-3.58Q47.36-4.09 47.85-4.90ZM41.93-8.06L41.93-8.06L41.93-8.06Q43.99-8.06 45.18-9.34L45.18-9.34L45.18-9.34Q46.37-10.56 46.37-12.50L46.37-12.50L46.37-12.50Q46.37-13.17 46.12-13.53L46.12-13.53L46.12-13.53Q45.88-13.89 45.39-13.89L45.39-13.89L45.39-13.89Q44.89-13.89 44.47-13.70L44.47-13.70L44.47-13.70Q44.05-13.51 43.62-12.88L43.62-12.88L43.62-12.88Q42.54-11.43 41.93-8.06ZM52.79-0.87L52.79-0.87L52.79-0.87Q52.11-1.62 51.81-2.81L51.81-2.81L51.81-2.81Q51.50-4.00 51.50-5.95L51.50-5.95L51.50-5.95Q51.50-7.89 52.17-9.66L52.17-9.66L52.17-9.66Q52.84-11.43 54.06-12.70L54.06-12.70L54.06-12.70Q56.55-15.37 60.67-15.37L60.67-15.37L60.67-15.37Q62.15-15.37 63.22-14.88L63.22-14.88L68.18-15.37L66.03-4.06L66.03-4.06Q65.95-3.71 65.95-3.07L65.95-3.07L65.95-3.07Q65.95-2.44 66.34-2.03L66.34-2.03L66.34-2.03Q66.73-1.62 67.31-1.57L67.31-1.57L67.31-1.57Q67.02-0.58 65.96 0L65.96 0L65.96 0Q64.90 0.58 63.71 0.58L63.71 0.58L63.71 0.58Q62.52 0.58 61.73 0.13L61.73 0.13L61.73 0.13Q60.93-0.32 60.70-1.07L60.70-1.07L60.70-1.07Q60.23-0.35 59.25 0.12L59.25 0.12L59.25 0.12Q58.26 0.58 56.94 0.58L56.94 0.58L56.94 0.58Q55.62 0.58 54.55 0.23L54.55 0.23L54.55 0.23Q53.48-0.12 52.79-0.87ZM58.91-12.64L58.91-12.64L58.91-12.64Q58.58-12.12 58.29-11.24L58.29-11.24L58.29-11.24Q58.00-10.35 57.52-7.99L57.52-7.99L57.52-7.99Q57.04-5.63 57.04-3.94L57.04-3.94L57.04-3.94Q57.04-2.26 57.30-1.77L57.30-1.77L57.30-1.77Q57.57-1.28 58.03-1.28L58.03-1.28L58.03-1.28Q58.96-1.28 59.64-2.16L59.64-2.16L59.64-2.16Q60.32-3.05 60.58-4.61L60.58-4.61L62.12-13.11L62.12-13.11Q61.51-13.63 60.80-13.63L60.80-13.63L60.80-13.63Q60.09-13.63 59.67-13.40L59.67-13.40L59.67-13.40Q59.25-13.17 58.91-12.64ZM82.01 0.58L82.01 0.58L82.01 0.58Q78.50 0.58 78.50-2.15L78.50-2.15L78.50-2.15Q78.53-2.90 78.76-4.18L78.76-4.18L79.29-6.84L79.29-6.84Q80.07-10.61 80.07-11.46L80.07-11.46L80.07-11.46Q80.07-13.14 79.08-13.14L79.08-13.14L79.08-13.14Q77.43-13.14 76.56-8.82L76.56-8.82L74.85 0L69.02 0.58L72.04-14.82L76.79-15.37L76.33-12.53L76.33-12.53Q77.69-15.37 81.87-15.37L81.87-15.37L81.87-15.37Q83.90-15.37 84.75-14.51L84.75-14.51L84.75-14.51Q85.61-13.66 85.61-11.75L85.61-11.75L85.61-11.75Q85.61-9.95 84.68-5.74L84.68-5.74L84.68-5.74Q84.25-3.86 84.25-3.15L84.25-3.15L84.25-3.15Q84.25-2.44 84.64-2.03L84.64-2.03L84.64-2.03Q85.03-1.62 85.61-1.57L85.61-1.57L85.61-1.57Q85.32-0.58 84.32 0L84.32 0L84.32 0Q83.32 0.58 82.01 0.58ZM94.34-7.08L94.34-7.08L94.34-7.08Q94.34-12.56 97.18-16.01L97.18-16.01L97.18-16.01Q100.20-19.75 105.44-19.75L105.44-19.75L105.44-19.75Q109.24-19.75 111.16-17.91L111.16-17.91L111.16-17.91Q113.07-16.07 113.07-12.18L113.07-12.18L113.07-12.18Q113.07-6.26 110.06-2.81L110.06-2.81L110.06-2.81Q107.07 0.58 102.05 0.58L102.05 0.58L102.05 0.58Q98.14 0.58 96.24-1.38L96.24-1.38L96.24-1.38Q94.34-3.33 94.34-7.08ZM101.96-13.08L101.96-13.08L101.96-13.08Q100.66-7.86 100.66-3.74L100.66-3.74L100.66-3.74Q100.66-2.76 100.99-2.12L100.99-2.12L100.99-2.12Q101.33-1.48 102.21-1.48L102.21-1.48L102.21-1.48Q103.09-1.48 103.65-1.90L103.65-1.90L103.65-1.90Q104.20-2.32 104.63-3.28L104.63-3.28L104.63-3.28Q105.33-4.84 105.98-8.16L105.98-8.16L105.98-8.16Q106.63-11.48 106.69-12.86L106.69-12.86L106.69-12.86Q106.75-14.24 106.75-15.28L106.75-15.28L106.75-15.28Q106.75-16.33 106.43-16.99L106.43-16.99L106.43-16.99Q106.11-17.66 105.26-17.66L105.26-17.66L105.26-17.66Q104.40-17.66 103.82-17.14L103.82-17.14L103.82-17.14Q102.75-16.15 101.96-13.08ZM125.80-16.82L125.80-16.82L125.80-16.82Q126.21-17.52 126.21-18.27L126.21-18.27L126.21-18.27Q126.21-19.60 125.40-19.60L125.40-19.60L125.40-19.60Q124.15-19.60 123.63-17.05L123.63-17.05L123.19-14.79L125.83-14.79L125.66-13.49L122.93-13.49L120.32 0L114.46 0.58L117.25-13.49L115.19-13.49L115.45-14.79L117.48-14.79L118.09-17.08L118.09-17.08Q118.61-19.20 120.84-20.18L120.84-20.18L120.84-20.18Q122.47-20.88 125.19-20.88L125.19-20.88L125.19-20.88Q127.92-20.88 129.14-20.18L129.14-20.18L129.14-20.18Q130.36-19.49 130.36-18.56L130.36-18.56L130.36-18.56Q130.36-17.63 129.63-17.05L129.63-17.05L129.63-17.05Q128.91-16.47 128.09-16.47L128.09-16.47L128.09-16.47Q126.50-16.47 125.80-16.82ZM134.53 0L131.34 0L134.82-19.14L141.06-19.14L145.58-5.97L147.99-19.14L151.21-19.11L147.67 0L141.03 0L136.85-12.67L134.53 0ZM165.13-15.37L165.13-15.37L165.13-15.37Q162.78-15.37 161.07-16.15L161.07-16.15L160.14-11.46L165.74-11.46L165.74-11.46Q165.74-9.92 164.97-8.95L164.97-8.95L164.97-8.95Q164.20-7.98 162.81-7.98L162.81-7.98L162.81-7.98Q161.30-7.98 159.91-8.53L159.91-8.53L159.91-8.53Q159.62-8.64 159.59-8.67L159.59-8.67L157.93 0L151.61 0L155.30-19.14L168.23-19.14L168.23-19.14Q168.23-17.37 167.40-16.37L167.40-16.37L167.40-16.37Q166.58-15.37 165.13-15.37ZM169.82-14.12L169.82-14.12L169.82-14.12Q168.84-14.88 168.84-16.49L168.84-16.49L168.84-16.49Q168.84-18.10 169.90-18.94L169.90-18.94L169.90-18.94Q170.96-19.78 172.78-19.78L172.78-19.78L172.78-19.78Q173.94-19.78 176.70-19.37L176.70-19.37L178.67-19.08L178.67-19.08Q179.66-18.97 180.68-18.97L180.68-18.97L180.68-18.97Q181.71-18.97 182.41-19.40L182.41-19.40L182.41-19.40Q183.45-18.47 183.45-17.14L183.45-17.14L183.45-17.14Q183.45-15.81 182.27-14.85L182.27-14.85L182.27-14.85Q181.05-13.83 179.48-13.83L179.48-13.83L179.48-13.83Q178.73-13.83 177.51-14.04L177.51-14.04L177.51-14.04Q176.09-9.57 176.09-6.47L176.09-6.47L176.09-6.47Q176.09-3.36 177.65-1.74L177.65-1.74L177.65-1.74Q176.93-0.43 175.86 0.07L175.86 0.07L175.86 0.07Q174.78 0.58 173.17 0.58L173.17 0.58L173.17 0.58Q171.56 0.58 170.56-0.30L170.56-0.30L170.56-0.30Q169.56-1.19 169.56-3.02L169.56-3.02L169.56-3.02Q169.56-5.13 170.72-8.61L170.72-8.61L170.72-8.61Q171.88-12.06 173.62-14.70L173.62-14.70L173.62-14.70Q172.78-14.79 171.91-14.79L171.91-14.79L171.91-14.79Q170.11-14.79 169.82-14.12Z" fill="#ccc"></path></g></g><style>text {
  font-size: 64px;
  font-family: Arial Black;
  dominant-baseline: central;
  text-anchor: middle;
}</style></svg>