<svg width="708.9607666015625px" height="146.71999816894532px" xmlns="http://www.w3.org/2000/svg" viewBox="-104.48038330078123 1.640000915527338 708.9607666015625 146.71999816894532" style="background: none;" preserveAspectRatio="xMidYMid"><defs><filter id="editing-hole" x="-100%" y="-100%" width="300%" height="300%"><feFlood flood-color="none" result="black"></feFlood><feMorphology operator="dilate" radius="2" in="SourceGraphic" result="erode"></feMorphology><feGaussianBlur in="erode" stdDeviation="4" result="blur"></feGaussianBlur><feOffset in="blur" dx="2" dy="2" result="offset"></feOffset><feComposite operator="atop" in="offset" in2="black" result="merge"></feComposite><feComposite operator="in" in="merge" in2="SourceGraphic" result="inner-shadow"></feComposite></filter></defs><g filter="url(#editing-hole)"><g transform="translate(-2.0991216897964478, 104.60000228881836)"><path d="M2.56-19.52L2.56-19.52L2.56-19.52Q2.56-34.64 10.40-44.16L10.40-44.16L10.40-44.16Q18.72-54.48 33.20-54.48L33.20-54.48L33.20-54.48Q43.68-54.48 48.96-49.40L48.96-49.40L48.96-49.40Q54.24-44.32 54.24-33.60L54.24-33.60L54.24-33.60Q54.24-17.28 45.92-7.76L45.92-7.76L45.92-7.76Q37.68 1.60 23.84 1.60L23.84 1.60L23.84 1.60Q13.04 1.60 7.80-3.80L7.80-3.80L7.80-3.80Q2.56-9.20 2.56-19.52ZM23.60-36.08L23.60-36.08L23.60-36.08Q20-21.68 20-10.32L20-10.32L20-10.32Q20-7.60 20.92-5.84L20.92-5.84L20.92-5.84Q21.84-4.08 24.28-4.08L24.28-4.08L24.28-4.08Q26.72-4.08 28.24-5.24L28.24-5.24L28.24-5.24Q29.76-6.40 30.96-9.04L30.96-9.04L30.96-9.04Q32.88-13.36 34.68-22.52L34.68-22.52L34.68-22.52Q36.48-31.68 36.64-35.48L36.64-35.48L36.64-35.48Q36.80-39.28 36.80-42.16L36.80-42.16L36.80-42.16Q36.80-45.04 35.92-46.88L35.92-46.88L35.92-46.88Q35.04-48.72 32.68-48.72L32.68-48.72L32.68-48.72Q30.32-48.72 28.72-47.28L28.72-47.28L28.72-47.28Q25.76-44.56 23.60-36.08ZM97.44-33.28L97.44-33.28L97.44-33.28Q97.44-29.92 94.64-27.84L94.64-27.84L94.64-27.84Q91.84-25.76 87.28-25.76L87.28-25.76L87.28-25.76Q85.36-25.76 84.24-26.32L84.24-26.32L84.24-26.32Q85.12-28.40 85.40-31L85.40-31L85.40-31Q85.68-33.60 85.68-34.32L85.68-34.32L85.68-34.32Q85.68-37.68 83.36-37.68L83.36-37.68L83.36-37.68Q81.76-37.68 79.96-35.68L79.96-35.68L79.96-35.68Q78.16-33.68 76.64-30.56L76.64-30.56L76.64-30.56Q73.28-23.36 73.28-16.08L73.28-16.08L73.28-16.08Q73.28-12.08 74.80-10.28L74.80-10.28L74.80-10.28Q76.32-8.48 79.68-8.48L79.68-8.48L79.68-8.48Q84.32-8.48 88-12.32L88-12.32L88-12.32Q89.04-13.52 89.60-14.88L89.60-14.88L89.60-14.88Q92.64-13.28 92.64-8.88L92.64-8.88L92.64-8.88Q92.64-4.40 87.68-1.44L87.68-1.44L87.68-1.44Q82.56 1.60 74.40 1.60L74.40 1.60L74.40 1.60Q58.16 1.60 58.16-15.60L58.16-15.60L58.16-15.60Q58.16-28.16 65.28-35.36L65.28-35.36L65.28-35.36Q72.16-42.40 84.80-42.40L84.80-42.40L84.80-42.40Q97.44-42.40 97.44-33.28ZM132-13.52L132-13.52L132-13.52Q134-12.16 134-9.16L134-9.16L134-9.16Q134-6.16 132.48-4.24L132.48-4.24L132.48-4.24Q130.96-2.32 128.48-1.04L128.48-1.04L128.48-1.04Q123.36 1.60 117.84 1.60L117.84 1.60L117.84 1.60Q112.32 1.60 109.08 0.40L109.08 0.40L109.08 0.40Q105.84-0.80 103.68-3.04L103.68-3.04L103.68-3.04Q99.44-7.28 99.44-15.04L99.44-15.04L99.44-15.04Q99.44-27.12 106.00-34.48L106.00-34.48L106.00-34.48Q113.04-42.40 125.28-42.40L125.28-42.40L125.28-42.40Q132.88-42.40 136.64-39.20L136.64-39.20L136.64-39.20Q139.44-36.80 139.44-32.88L139.44-32.88L139.44-32.88Q139.44-18.80 115.12-18.80L115.12-18.80L115.12-18.80Q114.80-16.72 114.80-14.96L114.80-14.96L114.80-14.96Q114.80-11.28 116.44-9.88L116.44-9.88L116.44-9.88Q118.08-8.48 121.12-8.48L121.12-8.48L121.12-8.48Q124.16-8.48 127.40-9.88L127.40-9.88L127.40-9.88Q130.64-11.28 132-13.52ZM115.68-22.24L115.68-22.24L115.68-22.24Q121.36-22.24 124.64-25.76L124.64-25.76L124.64-25.76Q127.92-29.12 127.92-34.48L127.92-34.48L127.92-34.48Q127.92-36.32 127.24-37.32L127.24-37.32L127.24-37.32Q126.56-38.32 125.20-38.32L125.20-38.32L125.20-38.32Q123.84-38.32 122.68-37.80L122.68-37.80L122.68-37.80Q121.52-37.28 120.32-35.52L120.32-35.52L120.32-35.52Q117.36-31.52 115.68-22.24ZM145.64-2.40L145.64-2.40L145.64-2.40Q143.76-4.48 142.92-7.76L142.92-7.76L142.92-7.76Q142.08-11.04 142.08-16.40L142.08-16.40L142.08-16.40Q142.08-21.76 143.92-26.64L143.92-26.64L143.92-26.64Q145.76-31.52 149.12-35.04L149.12-35.04L149.12-35.04Q156-42.40 167.36-42.40L167.36-42.40L167.36-42.40Q171.44-42.40 174.40-41.04L174.40-41.04L188.08-42.40L182.16-11.20L182.16-11.20Q181.92-10.24 181.92-8.48L181.92-8.48L181.92-8.48Q181.92-6.72 183-5.60L183-5.60L183-5.60Q184.08-4.48 185.68-4.32L185.68-4.32L185.68-4.32Q184.88-1.60 181.96 0L181.96 0L181.96 0Q179.04 1.60 175.76 1.60L175.76 1.60L175.76 1.60Q172.48 1.60 170.28 0.36L170.28 0.36L170.28 0.36Q168.08-0.88 167.44-2.96L167.44-2.96L167.44-2.96Q166.16-0.96 163.44 0.32L163.44 0.32L163.44 0.32Q160.72 1.60 157.08 1.60L157.08 1.60L157.08 1.60Q153.44 1.60 150.48 0.64L150.48 0.64L150.48 0.64Q147.52-0.32 145.64-2.40ZM162.52-34.88L162.52-34.88L162.52-34.88Q161.60-33.44 160.80-31L160.80-31L160.80-31Q160-28.56 158.68-22.04L158.68-22.04L158.68-22.04Q157.36-15.52 157.36-10.88L157.36-10.88L157.36-10.88Q157.36-6.24 158.08-4.88L158.08-4.88L158.08-4.88Q158.80-3.52 160.08-3.52L160.08-3.52L160.08-3.52Q162.64-3.52 164.52-5.96L164.52-5.96L164.52-5.96Q166.40-8.40 167.12-12.72L167.12-12.72L171.36-36.16L171.36-36.16Q169.68-37.60 167.72-37.60L167.72-37.60L167.72-37.60Q165.76-37.60 164.60-36.96L164.60-36.96L164.60-36.96Q163.44-36.32 162.52-34.88ZM226.24 1.60L226.24 1.60L226.24 1.60Q216.56 1.60 216.56-5.92L216.56-5.92L216.56-5.92Q216.64-8 217.28-11.52L217.28-11.52L218.72-18.88L218.72-18.88Q220.88-29.28 220.88-31.60L220.88-31.60L220.88-31.60Q220.88-36.24 218.16-36.24L218.16-36.24L218.16-36.24Q213.60-36.24 211.20-24.32L211.20-24.32L206.48 0L190.40 1.60L198.72-40.88L211.84-42.40L210.56-34.56L210.56-34.56Q214.32-42.40 225.84-42.40L225.84-42.40L225.84-42.40Q231.44-42.40 233.80-40.04L233.80-40.04L233.80-40.04Q236.16-37.68 236.16-32.40L236.16-32.40L236.16-32.40Q236.16-27.44 233.60-15.84L233.60-15.84L233.60-15.84Q232.40-10.64 232.40-8.68L232.40-8.68L232.40-8.68Q232.40-6.72 233.48-5.60L233.48-5.60L233.48-5.60Q234.56-4.48 236.16-4.32L236.16-4.32L236.16-4.32Q235.36-1.60 232.60 0L232.60 0L232.60 0Q229.84 1.60 226.24 1.60ZM260.24-19.52L260.24-19.52L260.24-19.52Q260.24-34.64 268.08-44.16L268.08-44.16L268.08-44.16Q276.40-54.48 290.88-54.48L290.88-54.48L290.88-54.48Q301.36-54.48 306.64-49.40L306.64-49.40L306.64-49.40Q311.92-44.32 311.92-33.60L311.92-33.60L311.92-33.60Q311.92-17.28 303.60-7.76L303.60-7.76L303.60-7.76Q295.36 1.60 281.52 1.60L281.52 1.60L281.52 1.60Q270.72 1.60 265.48-3.80L265.48-3.80L265.48-3.80Q260.24-9.20 260.24-19.52ZM281.28-36.08L281.28-36.08L281.28-36.08Q277.68-21.68 277.68-10.32L277.68-10.32L277.68-10.32Q277.68-7.60 278.60-5.84L278.60-5.84L278.60-5.84Q279.52-4.08 281.96-4.08L281.96-4.08L281.96-4.08Q284.40-4.08 285.92-5.24L285.92-5.24L285.92-5.24Q287.44-6.40 288.64-9.04L288.64-9.04L288.64-9.04Q290.56-13.36 292.36-22.52L292.36-22.52L292.36-22.52Q294.16-31.68 294.32-35.48L294.32-35.48L294.32-35.48Q294.48-39.28 294.48-42.16L294.48-42.16L294.48-42.16Q294.48-45.04 293.60-46.88L293.60-46.88L293.60-46.88Q292.72-48.72 290.36-48.72L290.36-48.72L290.36-48.72Q288-48.72 286.40-47.28L286.40-47.28L286.40-47.28Q283.44-44.56 281.28-36.08ZM347.04-46.40L347.04-46.40L347.04-46.40Q348.16-48.32 348.16-50.40L348.16-50.40L348.16-50.40Q348.16-54.08 345.92-54.08L345.92-54.08L345.92-54.08Q342.48-54.08 341.04-47.04L341.04-47.04L339.84-40.80L347.12-40.80L346.64-37.20L339.12-37.20L331.92 0L315.76 1.60L323.44-37.20L317.76-37.20L318.48-40.80L324.08-40.80L325.76-47.12L325.76-47.12Q327.20-52.96 333.36-55.68L333.36-55.68L333.36-55.68Q337.84-57.60 345.36-57.60L345.36-57.60L345.36-57.60Q352.88-57.60 356.24-55.68L356.24-55.68L356.24-55.68Q359.60-53.76 359.60-51.20L359.60-51.20L359.60-51.20Q359.60-48.64 357.60-47.04L357.60-47.04L357.60-47.04Q355.60-45.44 353.36-45.44L353.36-45.44L353.36-45.44Q348.96-45.44 347.04-46.40ZM371.12 0L362.32 0L371.92-52.80L389.12-52.80L401.60-16.48L408.24-52.80L417.12-52.72L407.36 0L389.04 0L377.52-34.96L371.12 0ZM455.52-42.40L455.52-42.40L455.52-42.40Q449.04-42.40 444.32-44.56L444.32-44.56L441.76-31.60L457.20-31.60L457.20-31.60Q457.20-27.36 455.08-24.68L455.08-24.68L455.08-24.68Q452.96-22 449.12-22L449.12-22L449.12-22Q444.96-22 441.12-23.52L441.12-23.52L441.12-23.52Q440.32-23.84 440.24-23.92L440.24-23.92L435.68 0L418.24 0L428.40-52.80L464.08-52.80L464.08-52.80Q464.08-47.92 461.80-45.16L461.80-45.16L461.80-45.16Q459.52-42.40 455.52-42.40ZM468.48-38.96L468.48-38.96L468.48-38.96Q465.76-41.04 465.76-45.48L465.76-45.48L465.76-45.48Q465.76-49.92 468.68-52.24L468.68-52.24L468.68-52.24Q471.60-54.56 476.64-54.56L476.64-54.56L476.64-54.56Q479.84-54.56 487.44-53.44L487.44-53.44L492.88-52.64L492.88-52.64Q495.60-52.32 498.44-52.32L498.44-52.32L498.44-52.32Q501.28-52.32 503.20-53.52L503.20-53.52L503.20-53.52Q506.08-50.96 506.08-47.28L506.08-47.28L506.08-47.28Q506.08-43.60 502.80-40.96L502.80-40.96L502.80-40.96Q499.44-38.16 495.12-38.16L495.12-38.16L495.12-38.16Q493.04-38.16 489.68-38.72L489.68-38.72L489.68-38.72Q485.76-26.40 485.76-17.84L485.76-17.84L485.76-17.84Q485.76-9.28 490.08-4.80L490.08-4.80L490.08-4.80Q488.08-1.20 485.12 0.20L485.12 0.20L485.12 0.20Q482.16 1.60 477.72 1.60L477.72 1.60L477.72 1.60Q473.28 1.60 470.52-0.84L470.52-0.84L470.52-0.84Q467.76-3.28 467.76-8.32L467.76-8.32L467.76-8.32Q467.76-14.16 470.96-23.76L470.96-23.76L470.96-23.76Q474.16-33.28 478.96-40.56L478.96-40.56L478.96-40.56Q476.64-40.80 474.24-40.80L474.24-40.80L474.24-40.80Q469.28-40.80 468.48-38.96Z" fill="#ccc"></path></g></g><style>text {
  font-size: 64px;
  font-family: Arial Black;
  dominant-baseline: central;
  text-anchor: middle;
}</style></svg>