<svg width="1018.7614501953125px" height="203.36000366210936px" xmlns="http://www.w3.org/2000/svg" viewBox="-259.38072509765624 -26.680001831054682 1018.7614501953125 203.36000366210936" style="background: rgba(0, 0, 0, 0);" preserveAspectRatio="xMidYMid"><defs><filter id="editing-hole" x="-100%" y="-100%" width="300%" height="300%"><feFlood flood-color="#000" result="black"></feFlood><feMorphology operator="dilate" radius="2" in="SourceGraphic" result="erode"></feMorphology><feGaussianBlur in="erode" stdDeviation="4" result="blur"></feGaussianBlur><feOffset in="blur" dx="2" dy="2" result="offset"></feOffset><feComposite operator="atop" in="offset" in2="black" result="merge"></feComposite><feComposite operator="in" in="merge" in2="SourceGraphic" result="inner-shadow"></feComposite></filter></defs><g filter="url(#editing-hole)"><g transform="translate(-115.63211154937744, 117.91999959945679)"><path d="M3.71-28.30L3.71-28.30L3.71-28.30Q3.71-50.23 15.08-64.03L15.08-64.03L15.08-64.03Q27.14-79.00 48.14-79.00L48.14-79.00L48.14-79.00Q63.34-79.00 70.99-71.63L70.99-71.63L70.99-71.63Q78.65-64.26 78.65-48.72L78.65-48.72L78.65-48.72Q78.65-25.06 66.58-11.25L66.58-11.25L66.58-11.25Q54.64 2.32 34.57 2.32L34.57 2.32L34.57 2.32Q18.91 2.32 11.31-5.51L11.31-5.51L11.31-5.51Q3.71-13.34 3.71-28.30ZM34.22-52.32L34.22-52.32L34.22-52.32Q29-31.44 29-14.96L29-14.96L29-14.96Q29-11.02 30.33-8.47L30.33-8.47L30.33-8.47Q31.67-5.92 35.21-5.92L35.21-5.92L35.21-5.92Q38.74-5.92 40.95-7.60L40.95-7.60L40.95-7.60Q43.15-9.28 44.89-13.11L44.89-13.11L44.89-13.11Q47.68-19.37 50.29-32.65L50.29-32.65L50.29-32.65Q52.90-45.94 53.13-51.45L53.13-51.45L53.13-51.45Q53.36-56.96 53.36-61.13L53.36-61.13L53.36-61.13Q53.36-65.31 52.08-67.98L52.08-67.98L52.08-67.98Q50.81-70.64 47.39-70.64L47.39-70.64L47.39-70.64Q43.96-70.64 41.64-68.56L41.64-68.56L41.64-68.56Q37.35-64.61 34.22-52.32ZM141.29-48.26L141.29-48.26L141.29-48.26Q141.29-43.38 137.23-40.37L137.23-40.37L137.23-40.37Q133.17-37.35 126.56-37.35L126.56-37.35L126.56-37.35Q123.77-37.35 122.15-38.16L122.15-38.16L122.15-38.16Q123.42-41.18 123.83-44.95L123.83-44.95L123.83-44.95Q124.24-48.72 124.24-49.76L124.24-49.76L124.24-49.76Q124.24-54.64 120.87-54.64L120.87-54.64L120.87-54.64Q118.55-54.64 115.94-51.74L115.94-51.74L115.94-51.74Q113.33-48.84 111.13-44.31L111.13-44.31L111.13-44.31Q106.26-33.87 106.26-23.32L106.26-23.32L106.26-23.32Q106.26-17.52 108.46-14.91L108.46-14.91L108.46-14.91Q110.66-12.30 115.54-12.30L115.54-12.30L115.54-12.30Q122.26-12.30 127.60-17.86L127.60-17.86L127.60-17.86Q129.11-19.60 129.92-21.58L129.92-21.58L129.92-21.58Q134.33-19.26 134.33-12.88L134.33-12.88L134.33-12.88Q134.33-6.38 127.14-2.09L127.14-2.09L127.14-2.09Q119.71 2.32 107.88 2.32L107.88 2.32L107.88 2.32Q84.33 2.32 84.33-22.62L84.33-22.62L84.33-22.62Q84.33-40.83 94.66-51.27L94.66-51.27L94.66-51.27Q104.63-61.48 122.96-61.48L122.96-61.48L122.96-61.48Q141.29-61.48 141.29-48.26ZM191.40-19.60L191.40-19.60L191.40-19.60Q194.30-17.63 194.30-13.28L194.30-13.28L194.30-13.28Q194.30-8.93 192.10-6.15L192.10-6.15L192.10-6.15Q189.89-3.36 186.30-1.51L186.30-1.51L186.30-1.51Q178.87 2.32 170.87 2.32L170.87 2.32L170.87 2.32Q162.86 2.32 158.17 0.58L158.17 0.58L158.17 0.58Q153.47-1.16 150.34-4.41L150.34-4.41L150.34-4.41Q144.19-10.56 144.19-21.81L144.19-21.81L144.19-21.81Q144.19-39.32 153.70-50.00L153.70-50.00L153.70-50.00Q163.91-61.48 181.66-61.48L181.66-61.48L181.66-61.48Q192.68-61.48 198.13-56.84L198.13-56.84L198.13-56.84Q202.19-53.36 202.19-47.68L202.19-47.68L202.19-47.68Q202.19-27.26 166.92-27.26L166.92-27.26L166.92-27.26Q166.46-24.24 166.46-21.69L166.46-21.69L166.46-21.69Q166.46-16.36 168.84-14.33L168.84-14.33L168.84-14.33Q171.22-12.30 175.62-12.30L175.62-12.30L175.62-12.30Q180.03-12.30 184.73-14.33L184.73-14.33L184.73-14.33Q189.43-16.36 191.40-19.60ZM167.74-32.25L167.74-32.25L167.74-32.25Q175.97-32.25 180.73-37.35L180.73-37.35L180.73-37.35Q185.48-42.22 185.48-50.00L185.48-50.00L185.48-50.00Q185.48-52.66 184.50-54.11L184.50-54.11L184.50-54.11Q183.51-55.56 181.54-55.56L181.54-55.56L181.54-55.56Q179.57-55.56 177.89-54.81L177.89-54.81L177.89-54.81Q176.20-54.06 174.46-51.50L174.46-51.50L174.46-51.50Q170.17-45.70 167.74-32.25ZM211.18-3.48L211.18-3.48L211.18-3.48Q208.45-6.50 207.23-11.25L207.23-11.25L207.23-11.25Q206.02-16.01 206.02-23.78L206.02-23.78L206.02-23.78Q206.02-31.55 208.68-38.63L208.68-38.63L208.68-38.63Q211.35-45.70 216.22-50.81L216.22-50.81L216.22-50.81Q226.20-61.48 242.67-61.48L242.67-61.48L242.67-61.48Q248.59-61.48 252.88-59.51L252.88-59.51L272.72-61.48L264.13-16.24L264.13-16.24Q263.78-14.85 263.78-12.30L263.78-12.30L263.78-12.30Q263.78-9.74 265.35-8.12L265.35-8.12L265.35-8.12Q266.92-6.50 269.24-6.26L269.24-6.26L269.24-6.26Q268.08-2.32 263.84 0L263.84 0L263.84 0Q259.61 2.32 254.85 2.32L254.85 2.32L254.85 2.32Q250.10 2.32 246.91 0.52L246.91 0.52L246.91 0.52Q243.72-1.28 242.79-4.29L242.79-4.29L242.79-4.29Q240.93-1.39 236.99 0.46L236.99 0.46L236.99 0.46Q233.04 2.32 227.77 2.32L227.77 2.32L227.77 2.32Q222.49 2.32 218.20 0.93L218.20 0.93L218.20 0.93Q213.90-0.46 211.18-3.48ZM235.65-50.58L235.65-50.58L235.65-50.58Q234.32-48.49 233.16-44.95L233.16-44.95L233.16-44.95Q232.00-41.41 230.09-31.96L230.09-31.96L230.09-31.96Q228.17-22.50 228.17-15.78L228.17-15.78L228.17-15.78Q228.17-9.05 229.22-7.08L229.22-7.08L229.22-7.08Q230.26-5.10 232.12-5.10L232.12-5.10L232.12-5.10Q235.83-5.10 238.55-8.64L238.55-8.64L238.55-8.64Q241.28-12.18 242.32-18.44L242.32-18.44L248.47-52.43L248.47-52.43Q246.04-54.52 243.19-54.52L243.19-54.52L243.19-54.52Q240.35-54.52 238.67-53.59L238.67-53.59L238.67-53.59Q236.99-52.66 235.65-50.58ZM328.05 2.32L328.05 2.32L328.05 2.32Q314.01 2.32 314.01-8.58L314.01-8.58L314.01-8.58Q314.13-11.60 315.06-16.70L315.06-16.70L317.14-27.38L317.14-27.38Q320.28-42.46 320.28-45.82L320.28-45.82L320.28-45.82Q320.28-52.55 316.33-52.55L316.33-52.55L316.33-52.55Q309.72-52.55 306.24-35.26L306.24-35.26L299.40 0L276.08 2.32L288.14-59.28L307.17-61.48L305.31-50.11L305.31-50.11Q310.76-61.48 327.47-61.48L327.47-61.48L327.47-61.48Q335.59-61.48 339.01-58.06L339.01-58.06L339.01-58.06Q342.43-54.64 342.43-46.98L342.43-46.98L342.43-46.98Q342.43-39.79 338.72-22.97L338.72-22.97L338.72-22.97Q336.98-15.43 336.98-12.59L336.98-12.59L336.98-12.59Q336.98-9.74 338.55-8.12L338.55-8.12L338.55-8.12Q340.11-6.50 342.43-6.26L342.43-6.26L342.43-6.26Q341.27-2.32 337.27 0L337.27 0L337.27 0Q333.27 2.32 328.05 2.32ZM377.35-28.30L377.35-28.30L377.35-28.30Q377.35-50.23 388.72-64.03L388.72-64.03L388.72-64.03Q400.78-79.00 421.78-79.00L421.78-79.00L421.78-79.00Q436.97-79.00 444.63-71.63L444.63-71.63L444.63-71.63Q452.28-64.26 452.28-48.72L452.28-48.72L452.28-48.72Q452.28-25.06 440.22-11.25L440.22-11.25L440.22-11.25Q428.27 2.32 408.20 2.32L408.20 2.32L408.20 2.32Q392.54 2.32 384.95-5.51L384.95-5.51L384.95-5.51Q377.35-13.34 377.35-28.30ZM407.86-52.32L407.86-52.32L407.86-52.32Q402.64-31.44 402.64-14.96L402.64-14.96L402.64-14.96Q402.64-11.02 403.97-8.47L403.97-8.47L403.97-8.47Q405.30-5.92 408.84-5.92L408.84-5.92L408.84-5.92Q412.38-5.92 414.58-7.60L414.58-7.60L414.58-7.60Q416.79-9.28 418.53-13.11L418.53-13.11L418.53-13.11Q421.31-19.37 423.92-32.65L423.92-32.65L423.92-32.65Q426.53-45.94 426.76-51.45L426.76-51.45L426.76-51.45Q427.00-56.96 427.00-61.13L427.00-61.13L427.00-61.13Q427.00-65.31 425.72-67.98L425.72-67.98L425.72-67.98Q424.44-70.64 421.02-70.64L421.02-70.64L421.02-70.64Q417.60-70.64 415.28-68.56L415.28-68.56L415.28-68.56Q410.99-64.61 407.86-52.32ZM503.21-67.28L503.21-67.28L503.21-67.28Q504.83-70.06 504.83-73.08L504.83-73.08L504.83-73.08Q504.83-78.42 501.58-78.42L501.58-78.42L501.58-78.42Q496.60-78.42 494.51-68.21L494.51-68.21L492.77-59.16L503.32-59.16L502.63-53.94L491.72-53.94L481.28 0L457.85 2.32L468.99-53.94L460.75-53.94L461.80-59.16L469.92-59.16L472.35-68.32L472.35-68.32Q474.44-76.79 483.37-80.74L483.37-80.74L483.37-80.74Q489.87-83.52 500.77-83.52L500.77-83.52L500.77-83.52Q511.68-83.52 516.55-80.74L516.55-80.74L516.55-80.74Q521.42-77.95 521.42-74.24L521.42-74.24L521.42-74.24Q521.42-70.53 518.52-68.21L518.52-68.21L518.52-68.21Q515.62-65.89 512.37-65.89L512.37-65.89L512.37-65.89Q505.99-65.89 503.21-67.28ZM538.12 0L525.36 0L539.28-76.56L564.22-76.56L582.32-23.90L591.95-76.56L604.82-76.44L590.67 0L564.11 0L547.40-50.69L538.12 0ZM660.50-61.48L660.50-61.48L660.50-61.48Q651.11-61.48 644.26-64.61L644.26-64.61L640.55-45.82L662.94-45.82L662.94-45.82Q662.94-39.67 659.87-35.79L659.87-35.79L659.87-35.79Q656.79-31.90 651.22-31.90L651.22-31.90L651.22-31.90Q645.19-31.90 639.62-34.10L639.62-34.10L639.62-34.10Q638.46-34.57 638.35-34.68L638.35-34.68L631.74 0L606.45 0L621.18-76.56L672.92-76.56L672.92-76.56Q672.92-69.48 669.61-65.48L669.61-65.48L669.61-65.48Q666.30-61.48 660.50-61.48ZM679.30-56.49L679.30-56.49L679.30-56.49Q675.35-59.51 675.35-65.95L675.35-65.95L675.35-65.95Q675.35-72.38 679.59-75.75L679.59-75.75L679.59-75.75Q683.82-79.11 691.13-79.11L691.13-79.11L691.13-79.11Q695.77-79.11 706.79-77.49L706.79-77.49L714.68-76.33L714.68-76.33Q718.62-75.86 722.74-75.86L722.74-75.86L722.74-75.86Q726.86-75.86 729.64-77.60L729.64-77.60L729.64-77.60Q733.82-73.89 733.82-68.56L733.82-68.56L733.82-68.56Q733.82-63.22 729.06-59.39L729.06-59.39L729.06-59.39Q724.19-55.33 717.92-55.33L717.92-55.33L717.92-55.33Q714.91-55.33 710.04-56.14L710.04-56.14L710.04-56.14Q704.35-38.28 704.35-25.87L704.35-25.87L704.35-25.87Q704.35-13.46 710.62-6.96L710.62-6.96L710.62-6.96Q707.72-1.74 703.42 0.29L703.42 0.29L703.42 0.29Q699.13 2.32 692.69 2.32L692.69 2.32L692.69 2.32Q686.26 2.32 682.25-1.22L682.25-1.22L682.25-1.22Q678.25-4.76 678.25-12.06L678.25-12.06L678.25-12.06Q678.25-20.53 682.89-34.45L682.89-34.45L682.89-34.45Q687.53-48.26 694.49-58.81L694.49-58.81L694.49-58.81Q691.13-59.16 687.65-59.16L687.65-59.16L687.65-59.16Q680.46-59.16 679.30-56.49Z" fill="#ccc"></path></g></g><style>text {
  font-size: 64px;
  font-family: Arial Black;
  dominant-baseline: central;
  text-anchor: middle;
}</style></svg>